# xmcd
#
# Track frame offsets: 
#        150
#        2286
#        7266
#        17431
#        27731
#        34361
#        43856
#        51311
#        61113
#        69128
#        76713
#        85026
#        94201
#        107478
#        114343
#        120778
#        127191
#        136333
#        143498
#        155491
#        166726
#        177378
#        190461
#        197398
#        202161
#        211351
#
# Disc length: 2960 seconds
#
# Revision: 0
# Processed by: cddbd v1.5.2PL0 Copyright (c) Steve Scherf et al.
# Submitted via: ExactAudioCopy v1.1
#
DISCID=560b8e1a
DTITLE=Tennessee Ernie Ford - Tennessee Ernie Ford  ''Showcase''
DYEAR=1991
DGENRE=Country
TTITLE0=Introduction
TTITLE1=Night Train To Memphis
TTITLE2=Catfish Boogie
TTITLE3=I Gotta Have My Baby Back
TTITLE4=My Little Red Wagon
TTITLE5=Do The Hucklebuck
TTITLE6=Waiting For The Robert E Lee
TTITLE7=Half As Much
TTITLE8=Too Much Sugar For A Dime
TTITLE9=Sunday Down In Tennessee
TTITLE10=Just Because
TTITLE11=Oh! Happy Day
TTITLE12=Cool Water
TTITLE13=Oh! Mama
TTITLE14=You Gotta See Mama Tonight
TTITLE15=Up The Lazy River
TTITLE16=The Prairie Schooner
TTITLE17=Roll Out The Barrel
TTITLE18=Many Times
TTITLE19=Tumbleing Tumble Weed
TTITLE20=Ma He's Making Eyes At Me
TTITLE21=Wrap Your Troubles In Dreams
TTITLE22=Zing, Zing, Zing A Little Song
TTITLE23=If You Knew Susie
TTITLE24=Sweetheart Of All My Dreams
TTITLE25=I'll Never Be Free
EXTD=
EXTT0=
EXTT1=
EXTT2=
EXTT3=
EXTT4=
EXTT5=
EXTT6=
EXTT7=
EXTT8=
EXTT9=
EXTT10=
EXTT11=
EXTT12=
EXTT13=
EXTT14=
EXTT15=
EXTT16=
EXTT17=
EXTT18=
EXTT19=
EXTT20=
EXTT21=
EXTT22=
EXTT23=
EXTT24=
EXTT25=
PLAYORDER=
